<svg width="65" height="52" viewBox="0 0 65 52" fill="none" xmlns="http://www.w3.org/2000/svg">
<rect x="1" y="2" width="63" height="49" rx="24" fill="white" stroke="#A11311" stroke-width="2"/>
<path d="M36.3971 35.85C36.3971 37.4167 36.7471 38.5 37.4471 39.1C38.1804 39.6667 39.4304 39.95 41.1971 39.95V41C37.5971 40.8667 35.2971 40.8 34.2971 40.8C33.3637 40.8 31.1971 40.85 27.7971 40.95L26.5971 41V39.95C28.3637 39.95 29.6804 39.65 30.5471 39.05C31.4471 38.45 31.8971 37.3833 31.8971 35.85V23.75C31.8971 22.15 31.7304 20.9833 31.3971 20.25C31.0637 19.4833 30.4971 18.9833 29.6971 18.75C28.9304 18.4833 27.7304 18.35 26.0971 18.35V17.25C28.5304 17.1833 30.5304 16.9667 32.0971 16.6C33.6971 16.2333 35.1304 15.6 36.3971 14.7V35.85Z" fill="#A11311"/>
</svg>
