<svg width="90" height="90" viewBox="0 0 90 90" fill="none" xmlns="http://www.w3.org/2000/svg">
<circle cx="45" cy="45" r="45" fill="#A11311"/>
<path d="M86.0294 43.4831C86.0294 63.4491 66.03 84.9438 45.4412 84.9438C24.8523 84.9438 3.97058 65.7244 3.97058 45.7584C3.97058 25.7924 23.0876 4.29773 43.6765 4.29773C64.2653 4.29773 86.0294 23.5171 86.0294 43.4831Z" fill="white"/>
<path fill-rule="evenodd" clip-rule="evenodd" d="M62.8743 38.8546C62.8743 38.9649 62.8735 39.0749 62.8718 39.1847H62.3207C60.5997 30.2889 53.3479 23.6108 44.6631 23.6108C35.9784 23.6108 28.7266 30.2889 27.0056 39.1847H26.787C26.7854 39.0749 26.7845 38.9649 26.7845 38.8546C26.7845 28.0071 34.8635 19.2135 44.8294 19.2135C54.7953 19.2135 62.8743 28.0071 62.8743 38.8546Z" fill="#A11311"/>
<path d="M25.1583 46.7015C24.9084 45.0623 26.0276 43.4889 27.6581 43.1872V43.1872C29.2886 42.8855 30.8129 43.9698 31.0628 45.609L32.7748 56.8385C33.0247 58.4778 31.9056 60.0512 30.2751 60.3529V60.3529C28.6446 60.6546 27.1202 59.5703 26.8703 57.9311L25.1583 46.7015Z" fill="#A11311"/>
<path d="M30.0306 42.7688C29.7993 41.3474 30.7571 39.969 32.17 39.69V39.69C33.5828 39.4109 34.9156 40.3371 35.1469 41.7585L37.9404 58.9273C38.1717 60.3487 37.2138 61.7272 35.801 62.0062V62.0062C34.3882 62.2852 33.0554 61.359 32.8241 59.9376L30.0306 42.7688Z" fill="#A11311"/>
<path d="M56.4588 59.8337C56.1693 61.4149 54.6626 62.414 53.0934 62.0654V62.0654C51.5242 61.7168 50.4868 60.1524 50.7762 58.5712L53.7963 42.0727C54.0857 40.4915 55.5924 39.4923 57.1616 39.8409V39.8409C58.7308 40.1895 59.7682 41.754 59.4788 43.3351L56.4588 59.8337Z" fill="#A11311"/>
<rect width="6.01054" height="17.3501" rx="3.00527" transform="matrix(0.977786 0.209605 -0.173931 0.984758 58.9758 42.5576)" fill="#A11311"/>
<rect x="25.953" y="36.6196" width="2.16206" height="11.7262" rx="1.08103" fill="#A11311"/>
<rect x="61.3774" y="36.8029" width="2.16206" height="11.7262" rx="1.08103" fill="#A11311"/>
<line y1="-2.5" x2="82.454" y2="-2.5" transform="matrix(0.765132 -0.643873 0.539462 0.84201 11.9117 70.7865)" stroke="#A11311" stroke-width="5"/>
</svg>
