<svg width="70" height="70" viewBox="0 0 70 70" fill="none" xmlns="http://www.w3.org/2000/svg">
<path fill-rule="evenodd" clip-rule="evenodd" d="M66.5502 31.6187C66.5502 31.7962 66.5487 31.9733 66.5458 32.1501H65.5848C62.5842 17.8294 49.94 7.07892 34.7973 7.07892C19.6546 7.07892 7.01048 17.8294 4.00988 32.1501H3.62874C3.62584 31.9733 3.62439 31.7962 3.62439 31.6187C3.62439 14.1562 17.7108 0 35.0873 0C52.4637 0 66.5502 14.1562 66.5502 31.6187Z" fill="#A11311"/>
<path d="M0.850773 44.6251C0.380904 41.7796 2.30464 39.0791 5.14755 38.5934V38.5934C7.99046 38.1077 10.676 40.0208 11.1459 42.8663L14.0073 60.1953C14.4771 63.0409 12.5534 65.7414 9.7105 66.2271V66.2271C6.86759 66.7127 4.18205 64.7997 3.71218 61.9541L0.850773 44.6251Z" fill="#A11311"/>
<path d="M9.34096 38.2417C8.90637 35.7756 10.5511 33.4124 13.0145 32.9633V32.9633C15.4779 32.5142 17.8271 34.1492 18.2617 36.6152L23.019 63.61C23.4535 66.076 21.8089 68.4392 19.3455 68.8884V68.8884C16.8821 69.3375 14.5328 67.7025 14.0982 65.2365L9.34096 38.2417Z" fill="#A11311"/>
<path d="M55.4338 65.0394C54.8906 67.7791 52.2323 69.545 49.4963 68.9838V68.9838C46.7603 68.4226 44.9826 65.7467 45.5258 63.0071L50.652 37.1508C51.1952 34.4112 53.8535 32.6452 56.5895 33.2064V33.2064C59.3256 33.7676 61.1032 36.4435 60.5601 39.1832L55.4338 65.0394Z" fill="#A11311"/>
<rect width="10.4459" height="28.0036" rx="5.22294" transform="matrix(0.980971 0.194154 -0.187893 0.98219 59.7529 37.5797)" fill="#A11311"/>
<rect x="2.17444" y="28.0208" width="3.76975" height="18.8771" rx="1.88487" fill="#A11311"/>
<rect x="63.9403" y="28.3157" width="3.76975" height="18.8771" rx="1.88487" fill="#A11311"/>
</svg>
