<svg width="200" height="60" viewBox="0 0 200 60" fill="none" xmlns="http://www.w3.org/2000/svg">
<rect x="1.5" y="1.5" width="197" height="57" rx="23.5" fill="white" stroke="#A11311" stroke-width="3"/>
<path d="M89.0825 38.75C88.6992 39.3167 88.3159 39.725 87.9325 39.975C87.5492 40.225 87.0409 40.35 86.4075 40.35C85.7242 40.35 85.1575 40.15 84.7075 39.75C84.2742 39.35 83.9492 38.65 83.7325 37.65L83.1825 35.15C82.9825 34.2833 82.7909 33.6167 82.6075 33.15C82.4409 32.6833 82.1825 32.3083 81.8325 32.025C81.4825 31.7417 80.9909 31.6 80.3575 31.6H77.9825V37.35C77.9825 37.9833 78.0325 38.4417 78.1325 38.725C78.2325 39.0083 78.4159 39.2 78.6825 39.3C78.9659 39.4 79.4075 39.4667 80.0075 39.5V40C79.2409 39.95 78.1825 39.925 76.8325 39.925C75.3992 39.925 74.3325 39.95 73.6325 40V39.5C74.2325 39.4667 74.6659 39.4 74.9325 39.3C75.2159 39.2 75.4075 39.0083 75.5075 38.725C75.6075 38.4417 75.6575 37.9833 75.6575 37.35V24.95C75.6575 24.3167 75.6075 23.8583 75.5075 23.575C75.4075 23.2917 75.2159 23.1 74.9325 23C74.6659 22.9 74.2325 22.8333 73.6325 22.8V22.3C74.3325 22.35 75.3492 22.375 76.6825 22.375L79.3825 22.35C79.6992 22.3333 80.0575 22.325 80.4575 22.325C82.3909 22.325 83.8742 22.7333 84.9075 23.55C85.9575 24.35 86.4825 25.3917 86.4825 26.675C86.4825 27.325 86.3242 27.9833 86.0075 28.65C85.7075 29.3 85.1909 29.8917 84.4575 30.425C83.7409 30.9417 82.7992 31.2917 81.6325 31.475L81.9325 31.525C83.0325 31.7083 83.8325 32.0417 84.3325 32.525C84.8325 33.0083 85.1992 33.775 85.4325 34.825L86.0575 37.375C86.2242 38.1417 86.3992 38.675 86.5825 38.975C86.7659 39.275 87.0159 39.425 87.3325 39.425C87.6159 39.425 87.8492 39.35 88.0325 39.2C88.2325 39.05 88.4575 38.8083 88.7075 38.475L89.0825 38.75ZM79.8325 22.8C79.3159 22.8 78.9242 22.8583 78.6575 22.975C78.4075 23.0917 78.2325 23.3 78.1325 23.6C78.0325 23.9 77.9825 24.35 77.9825 24.95V31.1H79.6575C81.3075 31.1 82.4409 30.7333 83.0575 30C83.6742 29.2667 83.9825 28.25 83.9825 26.95C83.9825 25.5833 83.6575 24.55 83.0075 23.85C82.3575 23.15 81.2992 22.8 79.8325 22.8ZM100.368 37C100.068 37.9167 99.5018 38.7083 98.6685 39.375C97.8518 40.025 96.8601 40.35 95.6935 40.35C94.5101 40.35 93.4851 40.0833 92.6185 39.55C91.7518 39 91.0851 38.2417 90.6185 37.275C90.1685 36.2917 89.9435 35.1583 89.9435 33.875C89.9435 32.425 90.1768 31.1667 90.6435 30.1C91.1101 29.0333 91.7685 28.2167 92.6185 27.65C93.4685 27.0667 94.4601 26.775 95.5935 26.775C97.0935 26.775 98.2435 27.2333 99.0435 28.15C99.8601 29.05 100.268 30.425 100.268 32.275H92.4435C92.3935 32.7417 92.3685 33.275 92.3685 33.875C92.3685 34.975 92.5435 35.9333 92.8935 36.75C93.2601 37.5667 93.7351 38.2 94.3185 38.65C94.9185 39.0833 95.5435 39.3 96.1935 39.3C96.9935 39.3 97.7018 39.1083 98.3185 38.725C98.9351 38.3417 99.4518 37.7 99.8685 36.8L100.368 37ZM95.4935 27.25C94.7101 27.25 94.0351 27.6333 93.4685 28.4C92.9018 29.1667 92.5518 30.3 92.4185 31.8H97.8685C97.9018 30.5 97.7101 29.4167 97.2935 28.55C96.8935 27.6833 96.2935 27.25 95.4935 27.25ZM105.515 40.175C104.465 40.175 103.682 39.9167 103.165 39.4C102.665 38.8667 102.415 38.1333 102.415 37.2C102.415 36.45 102.615 35.8333 103.015 35.35C103.432 34.8667 103.915 34.4833 104.465 34.2C105.032 33.9167 105.773 33.6167 106.69 33.3C107.623 32.9833 108.315 32.6917 108.765 32.425C109.215 32.1583 109.44 31.8 109.44 31.35V29.8C109.44 28.8333 109.232 28.175 108.815 27.825C108.415 27.4583 107.848 27.275 107.115 27.275C105.948 27.275 105.123 27.575 104.64 28.175C104.973 28.2583 105.248 28.4333 105.465 28.7C105.698 28.9667 105.815 29.3 105.815 29.7C105.815 30.1167 105.682 30.45 105.415 30.7C105.148 30.9333 104.807 31.05 104.39 31.05C103.923 31.05 103.573 30.9083 103.34 30.625C103.107 30.325 102.99 29.9667 102.99 29.55C102.99 29.15 103.082 28.8167 103.265 28.55C103.465 28.2833 103.757 28.0167 104.14 27.75C104.54 27.4667 105.048 27.2333 105.665 27.05C106.282 26.8667 106.957 26.775 107.69 26.775C108.99 26.775 109.973 27.0833 110.64 27.7C111.057 28.0833 111.332 28.55 111.465 29.1C111.615 29.6333 111.69 30.3417 111.69 31.225V38.175C111.69 38.5917 111.748 38.8917 111.865 39.075C111.982 39.2583 112.182 39.35 112.465 39.35C112.665 39.35 112.848 39.3083 113.015 39.225C113.198 39.125 113.39 38.9917 113.59 38.825L113.865 39.25C113.432 39.5833 113.057 39.825 112.74 39.975C112.44 40.1083 112.057 40.175 111.59 40.175C110.79 40.175 110.232 39.975 109.915 39.575C109.598 39.175 109.44 38.6333 109.44 37.95C108.94 38.7833 108.365 39.3667 107.715 39.7C107.065 40.0167 106.332 40.175 105.515 40.175ZM106.615 39.175C107.715 39.175 108.657 38.5417 109.44 37.275V32.375C109.29 32.6083 109.082 32.8 108.815 32.95C108.548 33.1 108.14 33.3 107.59 33.55C106.957 33.8167 106.44 34.075 106.04 34.325C105.657 34.5583 105.323 34.8833 105.04 35.3C104.757 35.7167 104.615 36.25 104.615 36.9C104.615 37.65 104.798 38.2167 105.165 38.6C105.532 38.9833 106.015 39.175 106.615 39.175ZM125.991 37.275C125.991 38.0417 126.133 38.6 126.416 38.95C126.699 39.3 127.191 39.475 127.891 39.475V40C127.374 39.95 126.858 39.925 126.341 39.925C125.291 39.925 124.424 40.0417 123.741 40.275V38.05C123.441 38.8 122.991 39.375 122.391 39.775C121.791 40.1583 121.058 40.35 120.191 40.35C118.591 40.35 117.333 39.775 116.416 38.625C115.516 37.475 115.074 35.7917 115.091 33.575C115.091 32.125 115.341 30.8917 115.841 29.875C116.358 28.8417 117.041 28.0667 117.891 27.55C118.758 27.0333 119.708 26.775 120.741 26.775C121.374 26.775 121.949 26.9 122.466 27.15C122.999 27.3833 123.424 27.75 123.741 28.25V23.4C123.741 22.6333 123.599 22.075 123.316 21.725C123.033 21.375 122.541 21.2 121.841 21.2V20.675C122.374 20.725 122.891 20.75 123.391 20.75C124.441 20.75 125.308 20.6333 125.991 20.4V37.275ZM120.916 39.6C121.566 39.6 122.149 39.35 122.666 38.85C123.183 38.35 123.541 37.6417 123.741 36.725V29.275C123.291 27.9917 122.358 27.35 120.941 27.35C119.908 27.35 119.074 27.8833 118.441 28.95C117.808 30 117.499 31.5417 117.516 33.575C117.499 35.575 117.783 37.0833 118.366 38.1C118.949 39.1 119.799 39.6 120.916 39.6Z" fill="#A11311"/>
</svg>
