<svg width="200" height="60" viewBox="0 0 200 60" fill="none" xmlns="http://www.w3.org/2000/svg">
<rect width="200" height="60" rx="25" fill="#A11311"/>
<path d="M89.0825 39.75C88.6992 40.3167 88.3159 40.725 87.9325 40.975C87.5492 41.225 87.0409 41.35 86.4075 41.35C85.7242 41.35 85.1575 41.15 84.7075 40.75C84.2742 40.35 83.9492 39.65 83.7325 38.65L83.1825 36.15C82.9825 35.2833 82.7909 34.6167 82.6075 34.15C82.4409 33.6833 82.1825 33.3083 81.8325 33.025C81.4825 32.7417 80.9909 32.6 80.3575 32.6H77.9825V38.35C77.9825 38.9833 78.0325 39.4417 78.1325 39.725C78.2325 40.0083 78.4159 40.2 78.6825 40.3C78.9659 40.4 79.4075 40.4667 80.0075 40.5V41C79.2409 40.95 78.1825 40.925 76.8325 40.925C75.3992 40.925 74.3325 40.95 73.6325 41V40.5C74.2325 40.4667 74.6659 40.4 74.9325 40.3C75.2159 40.2 75.4075 40.0083 75.5075 39.725C75.6075 39.4417 75.6575 38.9833 75.6575 38.35V25.95C75.6575 25.3167 75.6075 24.8583 75.5075 24.575C75.4075 24.2917 75.2159 24.1 74.9325 24C74.6659 23.9 74.2325 23.8333 73.6325 23.8V23.3C74.3325 23.35 75.3492 23.375 76.6825 23.375L79.3825 23.35C79.6992 23.3333 80.0575 23.325 80.4575 23.325C82.3909 23.325 83.8742 23.7333 84.9075 24.55C85.9575 25.35 86.4825 26.3917 86.4825 27.675C86.4825 28.325 86.3242 28.9833 86.0075 29.65C85.7075 30.3 85.1909 30.8917 84.4575 31.425C83.7409 31.9417 82.7992 32.2917 81.6325 32.475L81.9325 32.525C83.0325 32.7083 83.8325 33.0417 84.3325 33.525C84.8325 34.0083 85.1992 34.775 85.4325 35.825L86.0575 38.375C86.2242 39.1417 86.3992 39.675 86.5825 39.975C86.7659 40.275 87.0159 40.425 87.3325 40.425C87.6159 40.425 87.8492 40.35 88.0325 40.2C88.2325 40.05 88.4575 39.8083 88.7075 39.475L89.0825 39.75ZM79.8325 23.8C79.3159 23.8 78.9242 23.8583 78.6575 23.975C78.4075 24.0917 78.2325 24.3 78.1325 24.6C78.0325 24.9 77.9825 25.35 77.9825 25.95V32.1H79.6575C81.3075 32.1 82.4409 31.7333 83.0575 31C83.6742 30.2667 83.9825 29.25 83.9825 27.95C83.9825 26.5833 83.6575 25.55 83.0075 24.85C82.3575 24.15 81.2992 23.8 79.8325 23.8ZM100.368 38C100.068 38.9167 99.5018 39.7083 98.6685 40.375C97.8518 41.025 96.8601 41.35 95.6935 41.35C94.5101 41.35 93.4851 41.0833 92.6185 40.55C91.7518 40 91.0851 39.2417 90.6185 38.275C90.1685 37.2917 89.9435 36.1583 89.9435 34.875C89.9435 33.425 90.1768 32.1667 90.6435 31.1C91.1101 30.0333 91.7685 29.2167 92.6185 28.65C93.4685 28.0667 94.4601 27.775 95.5935 27.775C97.0935 27.775 98.2435 28.2333 99.0435 29.15C99.8601 30.05 100.268 31.425 100.268 33.275H92.4435C92.3935 33.7417 92.3685 34.275 92.3685 34.875C92.3685 35.975 92.5435 36.9333 92.8935 37.75C93.2601 38.5667 93.7351 39.2 94.3185 39.65C94.9185 40.0833 95.5435 40.3 96.1935 40.3C96.9935 40.3 97.7018 40.1083 98.3185 39.725C98.9351 39.3417 99.4518 38.7 99.8685 37.8L100.368 38ZM95.4935 28.25C94.7101 28.25 94.0351 28.6333 93.4685 29.4C92.9018 30.1667 92.5518 31.3 92.4185 32.8H97.8685C97.9018 31.5 97.7101 30.4167 97.2935 29.55C96.8935 28.6833 96.2935 28.25 95.4935 28.25ZM105.515 41.175C104.465 41.175 103.682 40.9167 103.165 40.4C102.665 39.8667 102.415 39.1333 102.415 38.2C102.415 37.45 102.615 36.8333 103.015 36.35C103.432 35.8667 103.915 35.4833 104.465 35.2C105.032 34.9167 105.773 34.6167 106.69 34.3C107.623 33.9833 108.315 33.6917 108.765 33.425C109.215 33.1583 109.44 32.8 109.44 32.35V30.8C109.44 29.8333 109.232 29.175 108.815 28.825C108.415 28.4583 107.848 28.275 107.115 28.275C105.948 28.275 105.123 28.575 104.64 29.175C104.973 29.2583 105.248 29.4333 105.465 29.7C105.698 29.9667 105.815 30.3 105.815 30.7C105.815 31.1167 105.682 31.45 105.415 31.7C105.148 31.9333 104.807 32.05 104.39 32.05C103.923 32.05 103.573 31.9083 103.34 31.625C103.107 31.325 102.99 30.9667 102.99 30.55C102.99 30.15 103.082 29.8167 103.265 29.55C103.465 29.2833 103.757 29.0167 104.14 28.75C104.54 28.4667 105.048 28.2333 105.665 28.05C106.282 27.8667 106.957 27.775 107.69 27.775C108.99 27.775 109.973 28.0833 110.64 28.7C111.057 29.0833 111.332 29.55 111.465 30.1C111.615 30.6333 111.69 31.3417 111.69 32.225V39.175C111.69 39.5917 111.748 39.8917 111.865 40.075C111.982 40.2583 112.182 40.35 112.465 40.35C112.665 40.35 112.848 40.3083 113.015 40.225C113.198 40.125 113.39 39.9917 113.59 39.825L113.865 40.25C113.432 40.5833 113.057 40.825 112.74 40.975C112.44 41.1083 112.057 41.175 111.59 41.175C110.79 41.175 110.232 40.975 109.915 40.575C109.598 40.175 109.44 39.6333 109.44 38.95C108.94 39.7833 108.365 40.3667 107.715 40.7C107.065 41.0167 106.332 41.175 105.515 41.175ZM106.615 40.175C107.715 40.175 108.657 39.5417 109.44 38.275V33.375C109.29 33.6083 109.082 33.8 108.815 33.95C108.548 34.1 108.14 34.3 107.59 34.55C106.957 34.8167 106.44 35.075 106.04 35.325C105.657 35.5583 105.323 35.8833 105.04 36.3C104.757 36.7167 104.615 37.25 104.615 37.9C104.615 38.65 104.798 39.2167 105.165 39.6C105.532 39.9833 106.015 40.175 106.615 40.175ZM125.991 38.275C125.991 39.0417 126.133 39.6 126.416 39.95C126.699 40.3 127.191 40.475 127.891 40.475V41C127.374 40.95 126.858 40.925 126.341 40.925C125.291 40.925 124.424 41.0417 123.741 41.275V39.05C123.441 39.8 122.991 40.375 122.391 40.775C121.791 41.1583 121.058 41.35 120.191 41.35C118.591 41.35 117.333 40.775 116.416 39.625C115.516 38.475 115.074 36.7917 115.091 34.575C115.091 33.125 115.341 31.8917 115.841 30.875C116.358 29.8417 117.041 29.0667 117.891 28.55C118.758 28.0333 119.708 27.775 120.741 27.775C121.374 27.775 121.949 27.9 122.466 28.15C122.999 28.3833 123.424 28.75 123.741 29.25V24.4C123.741 23.6333 123.599 23.075 123.316 22.725C123.033 22.375 122.541 22.2 121.841 22.2V21.675C122.374 21.725 122.891 21.75 123.391 21.75C124.441 21.75 125.308 21.6333 125.991 21.4V38.275ZM120.916 40.6C121.566 40.6 122.149 40.35 122.666 39.85C123.183 39.35 123.541 38.6417 123.741 37.725V30.275C123.291 28.9917 122.358 28.35 120.941 28.35C119.908 28.35 119.074 28.8833 118.441 29.95C117.808 31 117.499 32.5417 117.516 34.575C117.499 36.575 117.783 38.0833 118.366 39.1C118.949 40.1 119.799 40.6 120.916 40.6Z" fill="white"/>
</svg>
